<svg width="20" height="21" viewBox="0 0 20 21" fill="none" xmlns="http://www.w3.org/2000/svg">
<path fill-rule="evenodd" clip-rule="evenodd" d="M13.5356 13.15C13.78 13.3937 13.78 13.7938 13.5356 14.0375C13.2919 14.2813 12.8956 14.2813 12.6513 14.0375L10.0037 11.3875L7.33749 14.0562C7.09124 14.3 6.69252 14.3 6.44627 14.0562C6.20064 13.8062 6.20064 13.4063 6.44627 13.1625L9.11251 10.4937L6.465 7.85001C6.22062 7.60626 6.22062 7.20623 6.465 6.96248C6.70812 6.71873 7.10437 6.71873 7.34875 6.96248L9.99626 9.61247L12.6825 6.92502C12.9287 6.68127 13.3269 6.68127 13.5731 6.92502C13.8187 7.17502 13.8187 7.56873 13.5731 7.81873L10.8875 10.5063L13.5356 13.15ZM10 0.5C4.47688 0.5 0 4.975 0 10.5C0 16.025 4.47688 20.5 10 20.5C15.5231 20.5 20 16.025 20 10.5C20 4.975 15.5231 0.5 10 0.5Z" fill="white"/>
</svg>
